<svg xmlns="http://www.w3.org/2000/svg" viewBox="0 0 512 512" role="img" aria-label="Honors Algebra 2 Prep logo">
  <defs>
    <linearGradient id="tile" x1="52" y1="44" x2="460" y2="468" gradientUnits="userSpaceOnUse">
      <stop stop-color="#7859f6"/>
      <stop offset=".48" stop-color="#aa5fe3"/>
      <stop offset="1" stop-color="#e762a8"/>
    </linearGradient>
    <linearGradient id="card" x1="152" y1="126" x2="354" y2="390" gradientUnits="userSpaceOnUse">
      <stop stop-color="#fffaff"/>
      <stop offset="1" stop-color="#f3ebff"/>
    </linearGradient>
    <linearGradient id="curve" x1="184" y1="324" x2="328" y2="324" gradientUnits="userSpaceOnUse">
      <stop stop-color="#9778f7"/>
      <stop offset="1" stop-color="#c96bdb"/>
    </linearGradient>
    <filter id="shadow" x="-25%" y="-25%" width="150%" height="160%">
      <feDropShadow dx="0" dy="22" stdDeviation="22" flood-color="#2c1248" flood-opacity=".24"/>
    </filter>
  </defs>

  <rect x="28" y="28" width="456" height="456" rx="128" fill="url(#tile)"/>
  <circle cx="112" cy="120" r="52" fill="#ffffff" opacity=".16"/>
  <circle cx="398" cy="382" r="76" fill="#5c2362" opacity=".2"/>

  <path d="M390 104l12 29 30 12-30 12-12 30-12-30-29-12 29-12 12-29z" fill="#fff" opacity=".92"/>
  <path d="M106 360l9 21 22 9-22 9-9 22-9-22-21-9 21-9 9-21z" fill="#fff" opacity=".82"/>

  <g filter="url(#shadow)">
    <rect x="144" y="118" width="224" height="282" rx="64" fill="url(#card)" transform="rotate(2 256 259)"/>
    <path d="M188 184h76" stroke="#e5d9ff" stroke-width="13" stroke-linecap="round"/>
    <path d="M188 226h92" stroke="#efe6ff" stroke-width="12" stroke-linecap="round"/>

    <text x="186" y="294" fill="#34204d" font-family="Manrope, Arial, sans-serif" font-size="104" font-weight="900" letter-spacing="-8">x</text>
    <text x="274" y="238" fill="#8a63f6" font-family="Manrope, Arial, sans-serif" font-size="62" font-weight="900">2</text>

    <path d="M190 328c42-42 90-42 132 0" fill="none" stroke="url(#curve)" stroke-width="15" stroke-linecap="round"/>
  </g>

  <g transform="rotate(34 374 212)">
    <rect x="356" y="140" width="34" height="132" rx="17" fill="#ffd56f"/>
    <rect x="356" y="140" width="34" height="32" rx="16" fill="#fff0aa"/>
    <path d="M356 272h34l-17 34z" fill="#fff1df"/>
    <path d="M366 294h14l-7 12z" fill="#34204d"/>
  </g>

  <circle cx="126" cy="124" r="9" fill="#fff" opacity=".55"/>
  <circle cx="416" cy="338" r="7" fill="#fff" opacity=".5"/>
</svg>
