<svg xmlns="http://www.w3.org/2000/svg" viewBox="0 0 512 512" role="img" aria-label="Honors Algebra 2 Prep logo">
  <defs>
    <linearGradient id="bg" x1="52" y1="42" x2="462" y2="470" gradientUnits="userSpaceOnUse">
      <stop stop-color="#7657f4"/>
      <stop offset=".46" stop-color="#a85ee7"/>
      <stop offset="1" stop-color="#e35fa7"/>
    </linearGradient>
    <linearGradient id="face" x1="132" y1="118" x2="382" y2="402" gradientUnits="userSpaceOnUse">
      <stop stop-color="#fff8ff"/>
      <stop offset="1" stop-color="#f2e7ff"/>
    </linearGradient>
    <linearGradient id="screen" x1="166" y1="156" x2="348" y2="248" gradientUnits="userSpaceOnUse">
      <stop stop-color="#efe9ff"/>
      <stop offset="1" stop-color="#ffe7f5"/>
    </linearGradient>
    <filter id="shadow" x="-18%" y="-18%" width="136%" height="140%">
      <feDropShadow dx="0" dy="20" stdDeviation="20" flood-color="#32144e" flood-opacity=".26"/>
    </filter>
  </defs>

  <rect width="512" height="512" rx="116" fill="url(#bg)"/>
  <circle cx="88" cy="102" r="58" fill="#fff" opacity=".13"/>
  <circle cx="430" cy="414" r="84" fill="#291244" opacity=".14"/>

  <path d="M402 92l13 31 32 13-32 13-13 32-13-32-31-13 31-13 13-31z" fill="#fff" opacity=".9"/>
  <path d="M111 361l9 21 22 9-22 9-9 22-9-22-21-9 21-9 9-21z" fill="#fff" opacity=".78"/>

  <g filter="url(#shadow)">
    <rect x="128" y="108" width="256" height="300" rx="70" fill="url(#face)"/>
    <rect x="164" y="148" width="184" height="98" rx="32" fill="url(#screen)" stroke="#d5c6ff" stroke-width="7"/>
    <path d="M188 209c22-36 43-36 64 0s42 36 76 0" fill="none" stroke="#7b5df4" stroke-width="13" stroke-linecap="round"/>

    <circle cx="216" cy="296" r="13" fill="#35204f"/>
    <circle cx="296" cy="296" r="13" fill="#35204f"/>
    <path d="M226 338c18 16 42 16 60 0" fill="none" stroke="#35204f" stroke-width="13" stroke-linecap="round"/>

    <rect x="176" y="356" width="34" height="26" rx="13" fill="#8b5cf6" opacity=".85"/>
    <rect x="230" y="356" width="34" height="26" rx="13" fill="#c061d8" opacity=".85"/>
    <rect x="284" y="356" width="34" height="26" rx="13" fill="#e35fa7" opacity=".85"/>
  </g>

  <text x="189" y="199" fill="#35204f" font-family="Manrope, Arial, sans-serif" font-size="42" font-weight="900" letter-spacing="-2">x²</text>
</svg>
